<svg width="24" height="24" viewBox="0 0 24 24" fill="none" xmlns="http://www.w3.org/2000/svg">
<g clip-path="url(#clip0_269_128)">
<path d="M14.3997 19.3337C14.3997 19.1568 14.3295 18.9873 14.2045 18.8623C14.0795 18.7372 13.9099 18.667 13.7331 18.667H9.73307C9.55626 18.667 9.38669 18.7372 9.26167 18.8623C9.13664 18.9873 9.06641 19.1568 9.06641 19.3337C9.06641 19.5105 9.13664 19.68 9.26167 19.8051C9.38669 19.9301 9.55626 20.0003 9.73307 20.0003H13.7331C13.9099 20.0003 14.0795 19.9301 14.2045 19.8051C14.3295 19.68 14.3997 19.5105 14.3997 19.3337Z" fill="#BB883A"/>
<path d="M15.026 16H11.026C10.8492 16 10.6797 16.0702 10.5546 16.1953C10.4296 16.3203 10.3594 16.4899 10.3594 16.6667C10.3594 16.8435 10.4296 17.013 10.5546 17.1381C10.6797 17.2631 10.8492 17.3333 11.026 17.3333H15.026C15.2029 17.3333 15.3724 17.2631 15.4974 17.1381C15.6225 17.013 15.6927 16.8435 15.6927 16.6667C15.6927 16.4899 15.6225 16.3203 15.4974 16.1953C15.3724 16.0702 15.2029 16 15.026 16Z" fill="#BB883A"/>
<path d="M14.6667 21.333H10.6667C10.4899 21.333 10.3203 21.4032 10.1953 21.5283C10.0702 21.6533 10 21.8229 10 21.9997C10 22.1765 10.0702 22.3461 10.1953 22.4711C10.3203 22.5961 10.4899 22.6663 10.6667 22.6663H14.6667C14.8435 22.6663 15.013 22.5961 15.1381 22.4711C15.2631 22.3461 15.3333 22.1765 15.3333 21.9997C15.3333 21.8229 15.2631 21.6533 15.1381 21.5283C15.013 21.4032 14.8435 21.333 14.6667 21.333Z" fill="#BB883A"/>
<path d="M21.7982 21.333H17.1315C16.9547 21.333 16.7851 21.4032 16.6601 21.5283C16.5351 21.6533 16.4648 21.8229 16.4648 21.9997C16.4648 22.1765 16.5351 22.3461 16.6601 22.4711C16.7851 22.5961 16.9547 22.6663 17.1315 22.6663H21.7982C21.975 22.6663 22.1446 22.5961 22.2696 22.4711C22.3946 22.3461 22.4648 22.1765 22.4648 21.9997C22.4648 21.8229 22.3946 21.6533 22.2696 21.5283C22.1446 21.4032 21.975 21.333 21.7982 21.333Z" fill="#BB883A"/>
<path d="M22.4661 18.667H17.7995C17.6227 18.667 17.4531 18.7372 17.3281 18.8623C17.203 18.9873 17.1328 19.1568 17.1328 19.3337C17.1328 19.5105 17.203 19.68 17.3281 19.8051C17.4531 19.9301 17.6227 20.0003 17.7995 20.0003H22.4661C22.643 20.0003 22.8125 19.9301 22.9376 19.8051C23.0626 19.68 23.1328 19.5105 23.1328 19.3337C23.1328 19.1568 23.0626 18.9873 22.9376 18.8623C22.8125 18.7372 22.643 18.667 22.4661 18.667Z" fill="#BB883A"/>
<path d="M22.4914 17.333C22.296 14.9856 21.6581 12.6965 20.6114 10.5863C19.6087 8.6795 18.164 7.04047 16.3981 5.80634L17.9981 2.27968C18.0497 2.17428 18.0725 2.05713 18.0643 1.94007C18.0561 1.82302 18.0172 1.71019 17.9514 1.61301C17.8907 1.52775 17.8108 1.45798 17.7182 1.40934C17.6255 1.3607 17.5227 1.33455 17.4181 1.33301H6.53141C6.41934 1.33273 6.309 1.36071 6.21061 1.41436C6.11221 1.46802 6.02893 1.54561 5.96846 1.63997C5.90799 1.73433 5.87228 1.84241 5.86464 1.95422C5.857 2.06603 5.87767 2.17797 5.92474 2.27968L7.55808 5.81968C5.80506 7.05496 4.3702 8.68861 3.37141 10.5863C1.93808 13.253 1.49141 16.513 1.37141 18.773C1.35176 19.1039 1.40085 19.4352 1.51559 19.7461C1.63033 20.0571 1.80823 20.3409 2.03808 20.5797C2.27965 20.8143 2.56569 20.9983 2.87938 21.1208C3.19308 21.2433 3.52809 21.3018 3.86474 21.293H7.99808V19.9997H3.81141C3.66053 19.9992 3.51131 19.9683 3.37269 19.9087C3.23407 19.8491 3.10892 19.7621 3.00474 19.653C2.90041 19.5447 2.81984 19.4159 2.76818 19.2747C2.71652 19.1335 2.69491 18.983 2.70474 18.833C2.79808 17.093 3.16474 13.7797 4.54474 11.1997C5.51756 9.35108 6.9561 7.78845 8.71808 6.66634H9.38474C8.93297 7.29132 8.51676 7.94123 8.13808 8.61301C7.75239 9.32783 7.42467 10.0724 7.15808 10.8397L8.07141 11.453C8.34125 10.657 8.67338 9.8835 9.06474 9.13968C9.54532 8.27479 10.0914 7.44793 10.6981 6.66634H11.3647C11.812 7.73527 12.1276 8.85459 12.3047 9.99968C12.4496 10.8497 12.5209 11.7107 12.5181 12.573L13.5714 11.833C13.5421 11.1625 13.4708 10.4946 13.3581 9.83301C13.1792 8.7518 12.8934 7.69104 12.5047 6.66634H13.0247L13.6314 5.33301H8.80474L7.57141 2.66634H16.3781L14.7114 6.31301C14.9971 6.46604 15.2712 6.63984 15.5314 6.83301C17.1648 7.95994 18.5045 9.46187 19.4381 11.213C20.3732 13.1331 20.9536 15.2065 21.1514 17.333H22.4914Z" fill="#BB883A"/>
</g>
<defs>
<clipPath id="clip0_269_128">
<rect width="24" height="24" fill="white"/>
</clipPath>
</defs>
</svg>
