<svg width="36" height="42" viewBox="0 0 36 42" fill="none" xmlns="http://www.w3.org/2000/svg">
<path d="M17.4646 1.31152C17.6274 1.21684 17.812 1.16699 18 1.16699C18.188 1.16699 18.3726 1.21684 18.5354 1.31152L34.4646 10.5784C34.6275 10.6732 34.7627 10.8095 34.8567 10.9736C34.9507 11.1377 35.0001 11.3239 35 11.5134V30.0454C35.0001 30.2349 34.9507 30.4211 34.8567 30.5852C34.7627 30.7493 34.6275 30.8856 34.4646 30.9803L18.5354 40.2437C18.3726 40.3383 18.188 40.3882 18 40.3882C17.812 40.3882 17.6274 40.3383 17.4646 40.2437L1.53538 30.9768C1.3725 30.882 1.23727 30.7457 1.14328 30.5816C1.0493 30.4175 0.99988 30.2313 1 30.0418V11.5134C0.99988 11.3239 1.0493 11.1377 1.14328 10.9736C1.23727 10.8095 1.3725 10.6732 1.53538 10.5784L17.4646 1.31152Z" stroke="#CCDFFE" stroke-opacity="0.7" stroke-width="1.5" stroke-linecap="round" stroke-linejoin="round"/>
<path d="M26.924 26.1721H9.07812L18.0011 11.7881L26.924 26.1721Z" stroke="#CCDFFE" stroke-opacity="0.7" stroke-width="1.5" stroke-linecap="round" stroke-linejoin="round"/>
<path d="M18.0005 11.788L1.04688 10.889L9.07753 26.172M18.0005 11.788L34.9541 10.889L26.9234 26.172M18.0005 11.788V1M9.07753 26.172L1.04688 30.667M9.07753 26.172L18.0005 40.556L26.9234 26.172M26.9234 26.172L34.9541 30.667" stroke="#CCDFFE" stroke-opacity="0.7" stroke-width="1.5" stroke-linejoin="round"/>
</svg>
